<?xml version="1.0" standalone="no"?>
<!DOCTYPE svg PUBLIC "-//W3C//DTD SVG 20010904//EN"
 "http://www.w3.org/TR/2001/REC-SVG-20010904/DTD/svg10.dtd">
<svg version="1.0" xmlns="http://www.w3.org/2000/svg"
 width="298.000000pt" height="276.000000pt" viewBox="0 0 298.000000 276.000000"
 preserveAspectRatio="xMidYMid meet">

<g transform="translate(0.000000,276.000000) scale(0.100000,-0.100000)"
fill="#000000" stroke="none">
<path d="M2199 2423 c-24 -32 -88 -102 -142 -156 -286 -283 -521 -457 -833
-619 -210 -109 -356 -166 -552 -218 l-43 -11 43 -35 c50 -40 64 -40 193 2 227
74 417 167 630 309 235 157 483 402 670 663 85 117 88 122 82 122 -2 0 -24
-26 -48 -57z"/>
<path d="M2361 2234 c0 -11 3 -14 6 -6 3 7 2 16 -1 19 -3 4 -6 -2 -5 -13z"/>
<path d="M2335 2163 c-23 -59 -65 -150 -87 -183 -8 -14 -45 -72 -82 -130 -129
-205 -327 -427 -491 -551 -228 -173 -592 -348 -820 -392 -103 -21 -166 -29
-140 -18 41 17 90 33 103 34 6 0 12 4 12 9 0 4 7 8 16 8 18 0 87 31 81 36 -2
2 -30 -6 -63 -19 -99 -39 -245 -62 -389 -62 -139 0 -196 12 -300 63 l-50 24
75 -69 c114 -105 152 -138 164 -138 17 -2 49 -17 68 -32 9 -8 21 -12 27 -9 5
4 12 2 16 -4 4 -6 10 -8 14 -5 5 2 39 -2 77 -9 233 -47 521 -18 775 79 328
126 605 370 763 675 79 153 119 256 185 478 60 203 76 262 68 262 -2 0 -12
-21 -22 -47z m-1838 -1289 c-3 -3 -12 -4 -19 -1 -8 3 -5 6 6 6 11 1 17 -2 13
-5z"/>
<path d="M2715 1855 c11 -62 26 -117 31 -112 5 5 -25 139 -33 147 -2 3 -2 -13
2 -35z"/>
<path d="M2752 1705 c0 -16 2 -22 5 -12 2 9 2 23 0 30 -3 6 -5 -1 -5 -18z"/>
<path d="M2762 1630 c0 -19 2 -27 5 -17 2 9 2 25 0 35 -3 9 -5 1 -5 -18z"/>
<path d="M2771 1500 c-2 -133 -15 -211 -56 -336 -58 -176 -121 -279 -250 -410
-82 -82 -133 -124 -199 -163 -155 -91 -309 -146 -489 -172 -120 -18 -410 -15
-536 5 -58 9 -107 19 -110 20 -3 2 -12 -3 -20 -11 -12 -13 -10 -14 20 -8 23 5
31 4 24 -3 -5 -6 -21 -12 -35 -15 -16 -3 -15 -3 5 -2 17 2 41 6 55 10 20 5 22
4 10 -5 -12 -9 -9 -10 16 -5 16 3 41 1 55 -4 20 -9 17 -10 -15 -4 -28 4 -37 3
-32 -6 4 -6 14 -11 22 -11 18 0 14 -23 -6 -32 -11 -5 -8 -7 9 -7 13 -1 34 -12
46 -25 l23 -25 -22 -4 c-14 -3 -10 -5 12 -6 17 0 32 -6 32 -12 0 -17 -91 -6
-165 19 -33 11 -52 15 -42 7 29 -21 232 -76 252 -69 11 5 16 4 12 -3 -23 -37
392 -52 541 -19 478 103 768 420 836 913 21 152 28 315 18 403 l-9 75 -2 -95z
m-1421 -1251 c0 -5 5 -7 12 -3 6 4 8 3 5 -3 -3 -5 -21 -7 -39 -5 -28 4 -30 6
-13 13 28 11 35 11 35 -2z"/>
<path d="M960 992 c-23 -11 -23 -31 0 -25 11 3 20 10 20 15 0 6 7 7 16 4 8 -3
12 -2 9 4 -7 11 -23 12 -45 2z"/>
<path d="M387 741 c14 -15 153 -126 198 -159 72 -51 175 -116 175 -109 0 3
-39 30 -86 62 -48 32 -103 72 -123 89 -49 44 -169 136 -176 136 -3 0 2 -8 12
-19z"/>
<path d="M900 500 c8 -5 20 -10 25 -10 6 0 3 5 -5 10 -8 5 -19 10 -25 10 -5 0
-3 -5 5 -10z"/>
<path d="M953 483 c9 -2 23 -2 30 0 6 3 -1 5 -18 5 -16 0 -22 -2 -12 -5z"/>
<path d="M1030 460 c0 -7 71 -22 77 -16 2 2 -14 8 -37 14 -22 5 -40 6 -40 2z"/>
<path d="M950 370 c0 -5 5 -10 11 -10 5 0 7 5 4 10 -3 6 -8 10 -11 10 -2 0 -4
-4 -4 -10z"/>
<path d="M1035 330 c17 -11 35 -20 40 -20 6 0 -5 9 -23 20 -42 26 -56 26 -17
0z"/>
<path d="M1246 315 c10 -8 24 -14 29 -14 6 0 1 6 -9 14 -11 8 -24 15 -30 15
-5 0 -1 -7 10 -15z"/>
</g>
</svg>
